<svg height="61" viewBox="0 0 89 61" width="89" xmlns="http://www.w3.org/2000/svg" xmlns:xlink="http://www.w3.org/1999/xlink"><filter id="a" height="157.5%" width="154.8%" x="-27.4%" y="-16.2%"><feOffset dx="0" dy="5" in="SourceAlpha" result="shadowOffsetOuter1"/><feGaussianBlur in="shadowOffsetOuter1" result="shadowBlurOuter1" stdDeviation="3"/><feColorMatrix in="shadowBlurOuter1" result="shadowMatrixOuter1" type="matrix" values="0 0 0 0 0   0 0 0 0 0   0 0 0 0 0  0 0 0 0.246376812 0"/><feMerge><feMergeNode in="shadowMatrixOuter1"/><feMergeNode in="SourceGraphic"/></feMerge></filter><g fill="none" fill-rule="evenodd" filter="url(#a)" transform="translate(23.718232 9.919337)"><path d="m8.14326546.3999939v39.2099991h-3.24715099c-2.209139 0-4-1.7909628-4-4.0002273v-31.2095445c0-2.20926454 1.790861-4.0002273 4-4.0002273zm3.03912784 0h25.9237202c2.209139 0 4 1.79096276 4 4.0002273v31.2095445c0 2.2092645-1.790861 4.0002273-4 4.0002273h-25.9237202z" fill="#d846ff"/><g fill="#fff" transform="translate(12 23)"><path d="m10.8240394 13.1024989c-1.05612734.7823784-2.34054298 1.2412106-3.72586411 1.2412106-3.60104142 0-6.52026227-3.1003393-6.52026227-6.92480171 0-3.82446237 2.91922085-6.9248017 6.52026227-6.9248017 1.38532113 0 2.66973677.45883223 3.72586411 1.24121064v-1.24121064h2.7943982v13.84960341h-2.7943982zm-3.72586411-1.6437212c2.10081667 0 3.80386511-1.80871136 3.80386511-4.03986991 0-2.23115854-1.70304844-4.03986991-3.80386511-4.03986991s-3.80386508 1.80871137-3.80386508 4.03986991c0 2.23115855 1.70304841 4.03986991 3.80386508 4.03986991z" fill-rule="nonzero"/><path d="m24.2579813.50257672h3.3324468l-4.885924 6.99126781 4.885924 6.81907147h-3.5761682l-3.0376693-4.34660034-3.0376692 4.34660034h-3.5761683l4.885924-6.81907147-4.885924-6.99126781h3.3324469l3.2813906 4.57969413z"/></g></g></svg>