<svg height="60" width="88" xmlns="http://www.w3.org/2000/svg">
  <title>CSS</title>
  <g fill="none">
    <path d="M27.693 9.346h32.614a1 1 0 0 1 .996 1.089L58.291 44.24a1 1 0 0 1-.728.874l-13.317 3.7a1 1 0 0 1-.536 0l-13.277-3.694a1 1 0 0 1-.728-.874l-3.008-33.812a1 1 0 0 1 .996-1.089z" fill="#0070ba"/>
    <path d="M44 45.863l11.515-3.2 2.71-30.406H43.998v33.606" fill="#1b86c1"/>
    <path d="M44 36.792l-.02.005-4.852-1.312-.31-3.48h-4.373l.61 6.852 8.924 2.482.02-.007v-4.54" fill="#ecece9"/>
    <path d="M43.904 29.82h5.445l-.507 5.662-4.86 1.314v4.54l8.932-2.48 1.09-12.228.106-1.172H43.905v4.365zm.056-8.87l10.55.017.09-.98.197-2.214.104-1.17H43.96v4.348z" fill="#fff"/>
    <path d="M43.96 21.19L54.9 16.6l-.363 4.333-10.572 4.482v4.364h-.006v-8.59z" fill="#fffffe"/>
    <path d="M33.534 20.934l-.4-4.332h10.865v4.35l-10.466-.018z" fill="#ebebe9"/>
    <path d="M33.905 25.406l.345 4.415h9.71v-8.628l-10.055 4.214z" fill="#ecece9"/>
  </g>
</svg>
