<svg height="60" width="88" xmlns="http://www.w3.org/2000/svg">
  <title>JavaScript</title>
  <g fill="none">
    <path d="M27.65 9.062h32.614a1 1 0 0 1 .996 1.089l-3.011 33.737a1 1 0 0 1-.73.875l-13.315 3.69a1 1 0 0 1-.534 0L30.39 44.77a1 1 0 0 1-.728-.875l-3.009-33.743a1 1 0 0 1 .996-1.089z" fill="#d5ba31"/>
    <path d="M55.472 42.317l2.71-30.35H43.957v33.542l11.515-3.193z" fill="#ffda3e"/>
    <path d="M43.957 36.455l-.02.005-4.85-1.31-.31-3.474H34.4l.61 6.84 8.925 2.478.02-.006v-4.533" fill="#ecece9"/>
    <path d="M50.17 19.29L48.8 35.15l-4.858 1.31v4.533l8.93-2.474 2-22.16-4.703 2.935z" fill="#fff"/>
    <path d="M43.917 20.644l10.552.016.086-.98.2-2.207.103-1.17H43.916v4.34z" fill="#fff"/>
    <path d="M33.492 20.627l-.4-4.323h10.865v4.34z" fill="#ebebe9"/>
  </g>
</svg>
