<svg height="60" viewBox="0 0 88 60" width="88" xmlns="http://www.w3.org/2000/svg" xmlns:xlink="http://www.w3.org/1999/xlink">
  <filter id="a" height="183.6%" width="124.6%" x="-12.3%" y="-41.8%">
    <feGaussianBlur in="SourceGraphic" stdDeviation="2.85714286" />
  </filter>
  <g fill="none" fill-rule="evenodd" transform="translate(9 11.023724)">
    <path d="m34.8227436 35.7952602c19.2319193 0 34.8227437-4.5929386 34.8227437-10.2572633 0-5.6652234-15.5908244-10.258162-34.8227437-10.258162-19.2319192 0-34.8227436 4.5929386-34.8227436 10.258162 0 5.6652235 15.5908244 10.2572633 34.8227436 10.2572633z" fill="#000" fill-opacity=".1" fill-rule="nonzero" filter="url(#a)" />
    <g transform="translate(3.662928 .832927)">
      <path d="m42.521417 18.6842144c0 .0684597-.0373143.1318261-.0982763.1656814l-2.2339425 1.2562424c-.0606548.0340052-.1355905.0340052-.1960918 0l-2.2342496-1.2562424c-.0614227-.0340051-.0982763-.0973715-.0982763-.1656814v-2.5160801c0-.0686095.0368536-.1318261.0967407-.1662806l2.232714-1.2583397c.0614227-.0344545.1366655-.0344545.1980881 0l2.2342497 1.2583397c.0614226.0344545.0982762.0976711.0982762.1662806zm.6034777-18.63571086c-.121924-.06621263-.2702597-.06441501-.3906481.00404467-.1197742.06890907-.1937886.19474304-.1937886.33106317v9.73715222c0 .0958735-.0522092.1842569-.1372796.2321936-.0844562.0479368-.1896425.0479368-.2748665 0l-1.6292363-.9154421c-.2426195-.13691935-.5414408-.13691935-.7849817 0l-6.5061963 3.6631167c-.2430802.1363201-.3931051.389486-.3931051.6621263v7.3283305c0 .2741383.1500249.5258063.3931051.6636244l6.5061963 3.6656633c.2429267.1363201.5420551.1363201.7857495 0l6.5061963-3.6671613c.2426195-.1378182.3931051-.3894861.3931051-.6636244v-18.26390145c0-.27803315-.1550923-.53374574-.4038541-.66961647z" fill="#282828" />
      <path d="m16.8005954 12.9306754c-.2437032.1388992-.3931991.3953286-.3931991.6725165v7.4285145c0 .2773405.1494959.5336173.3931991.6725165l6.5069361 3.7145625c.2432399.1384413.5431585.1384413.7860894 0l6.5058551-3.7145625c.2424676-.1388992.3922725-.3953286.3922725-.6725165v-7.4285145c0-.2771879-.1498049-.5336173-.3938169-.6725165l-6.5049284-3.71166242c-.122006-.06914434-.2579115-.10379283-.3938169-.10379283-.1359055 0-.2718109.03464849-.3938169.10379283z" fill="#75ac64" />
      <path d="m63.4148918 16.1050384c.2424128-.1393907.3916492-.3968212.3916492-.6743826v-1.8081139c0-.2781714-.1493904-.5348394-.3922653-.6748401l-6.4838509-3.72725235c-.244877-.14030574-.5451979-.14030574-.7900749 0l-6.5238937 3.72877745c-.244877.1403057-.3942674.3965162-.3942674.6756026v7.4575549c0 .2806115.1524706.5398721.3973476.6786527l6.4823108 3.6586246c.2387166.1357306.531337.1372556.7731338.0045752l3.9211127-2.1579632c.1232085-.0686278.201754-.1982581.201754-.3385639 0-.1403057-.0754652-.2714611-.1986738-.3400889l-6.5639365-3.7303025c-.1232086-.0686278-.1986738-.1982581-.1986738-.3370388v-2.3394456c0-.1396957.0739251-.268411.1971337-.3379538l2.042182-1.1666727c.1216685-.0701529.2710589-.0701529.3927273 0l2.0437222 1.1666727c.1216684.0686278.1971337.1982581.1971337.3370388v1.8392252c0 .1387806.0754652.2684109.1971337.3385638.1216684.0686278.2725989.0686278.3942674-.0015251z" fill="#282828" />
      <path d="m14.5843522 13.5166493c0-.2746695-.1490143-.5269475-.3929676-.6635358l-6.50685536-3.63787784c-.10984044-.06269629-.23289246-.09553721-.35763433-.10001551h-.06728687c-.12474187.0044783-.24779388.03731922-.35947779.10001551l-6.50654815 3.63787784c-.24241708.1373347-.3935821.3896127-.3935821.6642822l.01428694 9.7985351c0 .1358419.0722028.2627273.1951012.3299019.11982593.0716529.27037646.0716529.39020239 0l3.86822691-2.1525728c.24426055-.1412159.39327485-.3908069.39327485-.6627894v-4.5775758c0-.2731767.1490143-.5254547.39250674-.6612966l1.64683846-.9216356c.1222839-.0686673.2565504-.1027025.39327486-.1027025.13457374 0 .27191269.0337366.39081689.1025533l1.64607034.9213369c.24364606.135842.39327486.3881199.39327486.6612967v4.5772773c0 .2716839.1510114.5224691.39404296.6627894l3.8657689 2.1510799c.1213622.0701602.2723736.0701602.3932749 0 .1192114-.0671746.1947939-.1940599.1947939-.3299019z" fill="#282828" />
      <path d="m56.4428201 15.9372142c.0440276-.0252677.0992088-.0252677.1438234 0l1.1931477.6695216c.0446146.025125.0719117.0713776.0719117.1213419v1.3404709c0 .0499643-.0272971.096217-.0719117.1213419l-1.1931477.6695217c-.0446146.0252677-.0997958.0252677-.1438234 0l-1.1924139-.6695217c-.0454951-.0251249-.0733793-.0713776-.0733793-.1213419v-1.3404709c0-.0499643.0264166-.0962169.0719117-.1213419z" fill="#6ca55f" />
    </g>
  </g>
</svg>
