<svg height="60" width="88" xmlns="http://www.w3.org/2000/svg">
  <title>Node</title>
  <g fill="none" fill-rule="evenodd">
    <path d="M56.16 34.636a.2.2 0 0 1-.103.175l-2.362 1.329a.213.213 0 0 1-.208 0l-2.362-1.329a.2.2 0 0 1-.104-.175v-2.66c0-.073.039-.14.102-.176l2.361-1.33a.214.214 0 0 1 .21 0l2.362 1.33a.201.201 0 0 1 .104.176zm.639-19.704a.426.426 0 0 0-.413.004.405.405 0 0 0-.205.35v10.296a.282.282 0 0 1-.145.245c-.09.051-.201.051-.291 0l-1.723-.968a.847.847 0 0 0-.83 0l-6.879 3.874a.805.805 0 0 0-.416.7v7.748c0 .29.159.556.416.702l6.88 3.876a.852.852 0 0 0 .83 0l6.88-3.878a.809.809 0 0 0 .415-.701V17.868a.81.81 0 0 0-.427-.708z" fill="#2a3128"/>
    <path d="M28.965 28.553a.819.819 0 0 0-.416.71v7.855c0 .294.158.565.416.711l6.88 3.928a.841.841 0 0 0 .831 0l6.879-3.928a.82.82 0 0 0 .415-.71v-7.855a.819.819 0 0 0-.417-.711l-6.878-3.925a.844.844 0 0 0-.832 0z" fill="#75ac64"/>
    <path d="M78.252 31.91a.824.824 0 0 0 .414-.714v-1.912a.824.824 0 0 0-.415-.713l-6.855-3.941a.84.84 0 0 0-.836 0l-6.898 3.942a.822.822 0 0 0-.416.715v7.885c0 .297.16.57.42.718l6.854 3.868a.838.838 0 0 0 .817.005l4.146-2.282c.13-.073.213-.21.213-.358s-.08-.287-.21-.36l-6.94-3.944a.409.409 0 0 1-.21-.356v-2.474c0-.147.078-.283.208-.357l2.16-1.234a.415.415 0 0 1 .415 0l2.16 1.234a.41.41 0 0 1 .21.356v1.945a.415.415 0 0 0 .625.356zM26.622 29.172a.803.803 0 0 0-.416-.701l-6.88-3.847a.82.82 0 0 0-.378-.105h-.071a.835.835 0 0 0-.38.105l-6.88 3.847a.81.81 0 0 0-.416.702l.015 10.36c0 .144.076.278.206.35a.403.403 0 0 0 .413 0l4.09-2.277a.811.811 0 0 0 .416-.7v-4.84c0-.29.157-.556.415-.7l1.741-.974a.845.845 0 0 1 .83 0l1.74.974c.257.143.415.41.415.7v4.839c0 .287.16.552.417.7l4.087 2.275a.416.416 0 0 0 .416 0 .403.403 0 0 0 .206-.349z" fill="#2a3128"/>
    <path d="M70.88 31.732a.154.154 0 0 1 .152 0l1.262.708a.147.147 0 0 1 .076.128v1.417a.147.147 0 0 1-.076.129l-1.262.708a.154.154 0 0 1-.152 0l-1.26-.708a.147.147 0 0 1-.078-.129v-1.417c0-.053.028-.102.076-.128z" fill="#6ca55f"/>
  </g>
</svg>
