<svg height="60" width="88" xmlns="http://www.w3.org/2000/svg">
  <title>SVG</title>
  <g fill="none">
    <path d="M44.035 8.4a7.59 7.59 0 0 1 6.763 4.144 7.59 7.59 0 0 1 9.523 9.512 7.645 7.645 0 0 1 4.133 6.824v17.073a3.923 3.923 0 0 1-3.923 3.92H27.583a3.922 3.922 0 0 1-3.923-3.92V28.816a7.595 7.595 0 0 1 4.12-6.754 7.588 7.588 0 0 1 1.873-7.646 7.588 7.588 0 0 1 7.624-1.88 7.589 7.589 0 0 1 6.758-4.137zM27.79 22.056l-.01.005.005.014.004-.01.005-.01h-.004zm32.524-.002l.005.01v-.008l-.004-.002h-.002z" fill="#f90"/>
    <path d="M25.817 28.812v15.902a3.003 3.003 0 0 0 3 3.002h30.478c1.66 0 3-1.344 3-3.002V28.86c0-2.955-2.285-5.33-5.157-5.47a5.43 5.43 0 0 0-7.679-7.652 5.43 5.43 0 1 0-10.847-.025 5.43 5.43 0 0 0-7.65 7.678 5.43 5.43 0 0 0-5.146 5.422z" fill="#2f2f2f"/>
    <path d="M60.586 40.13v-7.617c0-.975-.79-1.766-1.766-1.766H29.293c-.977 0-1.765.79-1.765 1.766v4.325c3.967.187 10.083.54 16.422 1.146 5.852.56 12.122 1.45 16.636 2.145z" fill="#5f5f5f"/>
    <g fill="#fff">
      <path d="M28.454 28.824v-.026a2.88 2.88 0 0 1 4.863-2.088h5.787l-4.066-4.066a2.869 2.869 0 0 1-1.97-.843 2.876 2.876 0 0 1 0-4.07 2.878 2.878 0 0 1 4.073 0c.544.542.825 1.25.843 1.962l4.057 4.057v-5.79a2.88 2.88 0 1 1 4.171-.006v5.826l4.082-4.08a2.878 2.878 0 0 1 4.915-1.97 2.876 2.876 0 0 1 0 4.07 2.865 2.865 0 0 1-1.963.844l-4.07 4.07h5.79a2.88 2.88 0 0 1 4.87 2.084v.026h-31.38zM33.156 39.62c-2.874 0-5.623-2.13-5.623-4.722 0-2.594 2.46-4.697 5.497-4.697s5.498 2.104 5.498 4.698h-3.065c0-1.15-1.088-2.08-2.434-2.08-1.343 0-2.432.93-2.432 2.08 0 1.014.942 2.102 2.432 2.102 3.307 0 5.498 2.103 5.498 4.697 0 2.593-2.462 4.696-5.498 4.696s-5.497-2.103-5.497-4.696h3.063c0 1.148 1.089 2.08 2.433 2.08s2.434-.932 2.434-2.08c0-1.108-.742-2.077-2.308-2.077zm5.6-9.293l3.795 15.935h2.992l3.965-15.938h-2.991l-2.385 9.86-2.4-9.86-2.975.003zm10.933 4.367c.128-2.5 2.54-4.493 5.496-4.493 2.995 0 5.432 2.047 5.496 4.592h-3.064c-.065-1.1-1.128-1.973-2.43-1.973-1.265 0-2.303.82-2.423 1.874l.002 7.088c.126 1.046 1.162 1.862 2.42 1.862 1.239 0 2.26-.79 2.414-1.813l-.019-2.253h-2.336v-2.55h5.437v4.804c-.167 2.47-2.563 4.432-5.494 4.432-2.908 0-5.289-1.93-5.485-4.37l-.012-7.198z"/>
    </g>
  </g>
</svg>
