<svg xmlns="http://www.w3.org/2000/svg" width="88" height="60" viewBox="0 0 88 60">
  <defs>
    <filter id="a" width="122.1%" height="175.1%" x="-11.1%" y="-37.6%" filterUnits="objectBoundingBox">
      <feGaussianBlur in="SourceGraphic" stdDeviation="2.857"/>
    </filter>
  </defs>
  <g fill="none" transform="translate(4 6)">
    <path fill="#000000" fill-opacity=".1" d="M39.462,45.384 C60.859,45.384 78.205,40.274 78.205,33.972 C78.205,27.669 60.859,22.559 39.462,22.559 C18.065,22.559 0.719,27.669 0.719,33.972 C0.719,40.275 18.065,45.384 39.462,45.384 Z" filter="url(#a)"/>
    <polyline fill="#0070BA" points="25.266 36.436 22.1 .846 56.9 .846 53.73 36.43 39.478 40.39 25.266 36.436"/>
    <polyline fill="#1B86C1" points="39.5 37.363 51.015 34.163 53.725 3.757 39.498 3.757 39.498 37.363"/>
    <polyline fill="#ECECE9" points="39.5 28.292 39.48 28.297 34.628 26.985 34.318 23.505 29.945 23.505 30.555 30.357 39.479 32.839 39.499 32.832 39.499 28.292"/>
    <path fill="#FFFFFF" d="M39.404,21.32 L44.849,21.32 L44.342,26.982 L39.482,28.296 L39.482,32.836 L48.414,30.356 L49.504,18.128 L49.61,16.956 L39.405,16.956 L39.405,21.321 L39.404,21.32 Z M39.46,12.45 L50.01,12.467 L50.1,11.487 L50.297,9.273 L50.401,8.103 L39.46,8.103 L39.46,12.451 L39.46,12.45 Z"/>
    <polygon fill="#FFFFFE" points="39.46 12.69 50.4 8.1 50.037 12.433 39.465 16.915 39.465 21.279 39.459 21.279 39.459 12.689"/>
    <polygon fill="#EBEBE9" points="29.034 12.434 28.634 8.102 39.499 8.102 39.499 12.452 29.033 12.434"/>
    <polygon fill="#ECECE9" points="29.405 16.906 29.75 21.321 39.46 21.321 39.46 12.693 29.405 16.907"/>
  </g>
</svg>
