<svg xmlns="http://www.w3.org/2000/svg" width="88" height="60" viewBox="0 0 88 60">
  <defs>
    <filter id="a" width="122.1%" height="175.1%" x="-11.1%" y="-37.6%" filterUnits="objectBoundingBox">
      <feGaussianBlur in="SourceGraphic" stdDeviation="2.857"/>
    </filter>
  </defs>
  <g fill="none" transform="translate(5 5)">
    <path fill="#000000" fill-opacity=".1" d="M38.864,46.278 C60.261,46.278 77.607,41.168 77.607,34.866 C77.607,28.563 60.261,23.453 38.864,23.453 C17.467,23.453 0.121,28.563 0.121,34.866 C0.121,41.169 17.467,46.278 38.864,46.278 Z" filter="url(#a)"/>
    <path fill="#FF9900" d="M40.035,0.4 C42.979,0.4 45.541,2.08 46.798,4.544 C49.416,3.72 52.384,4.352 54.448,6.416 C56.508,8.476 57.142,11.442 56.321,14.056 C58.783,15.322 60.454,17.899 60.454,20.88 L60.454,37.953 C60.454,40.118 58.696,41.873 56.531,41.873 L23.583,41.873 C21.417,41.873 19.66,40.118 19.66,37.953 L19.66,20.816 C19.66,17.88 21.33,15.324 23.78,14.062 C22.957,11.446 23.59,8.479 25.653,6.416 C27.709,4.359 30.665,3.724 33.277,4.536 C34.535,2.076 37.095,0.399 40.035,0.399 L40.035,0.4 Z M23.79,14.056 L23.78,14.061 L23.785,14.075 L23.789,14.065 L23.794,14.055 L23.79,14.055 L23.79,14.056 Z M56.314,14.054 L56.319,14.064 L56.319,14.056 L56.315,14.054 L56.313,14.054 L56.314,14.054 Z"/>
    <path fill="#000000" d="M21.817,20.812 L21.817,36.714 C21.817,38.37 23.161,39.716 24.817,39.716 L55.295,39.716 C56.955,39.716 58.295,38.372 58.295,36.714 L58.295,20.86 C58.295,17.905 56.01,15.53 53.138,15.39 C55.04,13.258 54.968,9.987 52.922,7.94 C50.872,5.89 47.59,5.823 45.459,7.738 C45.329,4.854 42.949,2.556 40.034,2.556 C37.127,2.556 34.754,4.841 34.612,7.713 C32.48,5.823 29.218,5.9 27.177,7.941 C25.131,9.988 25.06,13.261 26.962,15.391 C24.095,15.539 21.816,17.911 21.816,20.813 L21.817,20.812 Z"/>
    <path fill="#525252" d="M56.586,32.13 L56.586,24.513 C56.586,23.538 55.796,22.747 54.82,22.747 L25.293,22.747 C24.316,22.747 23.528,23.537 23.528,24.513 L23.528,28.838 C27.495,29.025 33.611,29.378 39.95,29.984 C45.802,30.544 52.072,31.434 56.586,32.129 L56.586,32.13 Z"/>
    <path fill="#FFFFFF" d="M24.454,20.824 L24.454,20.798 C24.454,19.208 25.744,17.918 27.334,17.918 C28.104,17.918 28.801,18.218 29.317,18.71 L35.104,18.71 L31.038,14.644 C30.324,14.628 29.614,14.347 29.068,13.801 C27.943,12.678 27.943,10.854 29.068,9.731 C30.193,8.605 32.016,8.605 33.141,9.731 C33.685,10.273 33.966,10.981 33.984,11.693 L38.041,15.75 L38.041,9.96 C37.547,9.442 37.244,8.742 37.244,7.97 C37.244,6.38 38.534,5.09 40.124,5.09 C41.714,5.09 43.004,6.38 43.004,7.97 C43.004,8.74 42.702,9.438 42.212,9.954 L42.212,15.78 L46.294,11.7 C46.31,10.984 46.591,10.274 47.136,9.73 C48.261,8.604 50.084,8.604 51.209,9.73 C52.334,10.853 52.334,12.677 51.209,13.8 C50.665,14.345 49.959,14.626 49.246,14.644 L45.176,18.714 L50.966,18.714 C51.484,18.221 52.186,17.918 52.956,17.918 C54.546,17.918 55.836,19.208 55.836,20.798 L55.836,20.824 L24.456,20.824 L24.454,20.824 Z"/>
    <path fill="#FFFFFF" d="M5.736,9.62 C3.28,9.62 0.932,7.49 0.932,4.898 C0.932,2.304 3.034,0.201 5.628,0.201 C8.222,0.201 10.325,2.305 10.325,4.899 L7.707,4.899 C7.707,3.749 6.777,2.819 5.627,2.819 C4.48,2.819 3.549,3.749 3.549,4.899 C3.549,5.913 4.354,7.001 5.627,7.001 C8.452,7.001 10.324,9.104 10.324,11.698 C10.324,14.291 8.221,16.394 5.627,16.394 C3.033,16.394 0.931,14.291 0.931,11.698 L3.548,11.698 C3.548,12.846 4.478,13.778 5.626,13.778 C6.774,13.778 7.706,12.846 7.706,11.698 C7.706,10.59 7.072,9.621 5.734,9.621 L5.736,9.62 Z M10.52,0.327 L13.762,16.262 L16.318,16.262 L19.706,0.324 L17.15,0.324 L15.113,10.184 L13.063,0.324 L10.521,0.327 L10.52,0.327 Z M19.86,4.694 C19.97,2.194 22.03,0.201 24.556,0.201 C27.114,0.201 29.196,2.248 29.251,4.793 L26.633,4.793 C26.578,3.693 25.67,2.82 24.557,2.82 C23.477,2.82 22.59,3.64 22.487,4.694 L22.489,11.782 C22.597,12.828 23.482,13.644 24.557,13.644 C25.615,13.644 26.487,12.854 26.619,11.831 L26.603,9.578 L24.607,9.578 L24.607,7.028 L29.252,7.028 L29.252,11.832 C29.109,14.302 27.062,16.264 24.558,16.264 C22.074,16.264 20.04,14.334 19.872,11.894 L19.862,4.696 L19.86,4.694 Z" transform="translate(25 22)"/>
    <path fill="#000000" d="M5.736,9.522 C3.271,9.522 1.03,7.375 1.03,4.898 C1.03,2.358 3.09,0.298 5.628,0.298 C8.168,0.298 10.228,2.498 10.228,4.8 L7.805,4.8 C7.805,3.768 6.942,2.72 5.628,2.72 C4.426,2.72 3.451,3.695 3.451,4.898 C3.451,6.062 4.389,7.098 5.629,7.098 C8.319,7.098 10.229,9.074 10.229,11.698 C10.229,14.236 8.169,16.295 5.629,16.295 C3.089,16.295 1.031,14.065 1.031,11.798 L3.451,11.798 C3.451,12.802 4.427,13.874 5.629,13.874 C6.832,13.874 7.806,12.899 7.806,11.697 C7.806,10.423 7.036,9.522 5.736,9.522 L5.736,9.522 Z M5.736,9.719 C6.919,9.717 7.609,10.524 7.609,11.696 C7.609,12.79 6.721,13.676 5.627,13.676 C4.533,13.676 3.647,12.79 3.647,11.696 L3.647,11.6 L0.833,11.6 L0.833,11.697 C0.833,14.345 2.979,16.491 5.627,16.491 C8.275,16.491 10.422,14.346 10.422,11.698 C10.422,8.968 8.427,6.903 5.627,6.903 C4.5,6.903 3.647,5.959 3.647,4.899 C3.647,3.805 4.533,2.919 5.627,2.919 C6.721,2.919 7.607,3.804 7.607,4.993 L10.422,4.993 C10.422,2.253 8.275,0.103 5.627,0.103 C2.979,0.103 0.833,2.251 0.833,4.899 C0.833,7.486 3.163,9.719 5.735,9.719 L5.736,9.719 Z M10.52,0.327 L13.762,16.262 L16.318,16.262 L19.706,0.324 L17.15,0.324 L15.113,10.184 L13.063,0.324 L10.521,0.327 L10.52,0.327 Z M13.602,16.457 L10.282,0.131 L13.222,0.129 L15.126,9.182 L16.992,0.13 L19.948,0.13 L16.478,16.46 L13.6,16.46 L13.602,16.457 Z M19.86,4.694 L19.87,11.892 C20.038,14.332 22.072,16.262 24.556,16.262 C27.06,16.262 29.106,14.302 29.251,11.832 L29.251,7.028 L24.607,7.028 L24.607,9.578 L26.603,9.578 L26.619,11.831 C26.489,12.854 25.615,13.645 24.557,13.645 C23.482,13.645 22.597,12.829 22.489,11.783 L22.489,4.695 C22.589,3.642 23.477,2.82 24.557,2.82 C25.67,2.82 26.577,3.693 26.633,4.792 L29.253,4.792 C29.196,2.247 27.115,0.202 24.557,0.202 C22.031,0.202 19.971,2.194 19.861,4.694 L19.86,4.694 Z M19.664,4.694 L19.664,4.684 C19.779,2.074 21.934,0.004 24.556,0.004 C27.216,0.004 29.389,2.132 29.446,4.788 L29.452,4.988 L26.446,4.988 L26.436,4.802 C26.386,3.802 25.56,3.015 24.556,3.015 C23.586,3.015 22.776,3.753 22.683,4.695 L22.683,11.761 C22.783,12.717 23.589,13.449 24.556,13.449 C25.506,13.449 26.304,12.741 26.423,11.807 L26.421,9.774 L24.411,9.774 L24.411,6.834 L29.448,6.834 L29.448,11.844 C29.298,14.428 27.155,16.459 24.558,16.459 C21.981,16.459 19.852,14.462 19.675,11.893 L19.665,4.695 L19.664,4.694 Z" transform="translate(25 22)"/>
  </g>
</svg>
