<svg xmlns="http://www.w3.org/2000/svg" width="88" height="60" viewBox="0 0 88 60">
  <defs>
    <filter id="a" width="122.1%" height="175.1%" x="-11.1%" y="-37.6%" filterUnits="objectBoundingBox">
      <feGaussianBlur in="SourceGraphic" stdDeviation="2.857"/>
    </filter>
  </defs>
  <g fill="none" transform="translate(5 4)">
    <path fill="#000000" fill-opacity=".1" d="M38.743,22.825 C60.14,22.825 77.486,17.715 77.486,11.413 C77.486,5.11 60.14,0 38.743,0 C17.346,0 0,5.11 0,11.413 C0,17.716 17.346,22.825 38.743,22.825 Z" filter="url(#a)" transform="translate(0 26)"/>
    <g transform="translate(19)">
      <path fill="#8ED6FB" d="M39.2301903,34.6835014 L20.7891625,45 L20.7891625,36.9649089 L32.2789681,30.7139395 L39.2301903,34.6835014 Z M40,33.553703 L40,11.97848 L33.4200624,15.8302637 L33.4200624,29.6975572 L40,33.553703 Z M0.769809698,34.6835014 L19.2108375,45 L19.2108375,36.9649089 L7.72103187,30.7139395 L0.769809698,34.6835014 L0.769809698,34.6835014 Z M1.22230768e-15,33.553703 L1.22230768e-15,11.97848 L6.57993764,15.8302637 L6.57993764,29.6975572 L1.22230768e-15,33.553703 Z M0.769809698,10.5825902 L19.2108375,0 L19.2108375,7.76899961 L7.39705408,14.3602171 L7.30674121,14.412563 L0.769809698,10.5825902 L0.769809698,10.5825902 Z M39.2301903,10.5825902 L20.7891625,0 L20.7891625,7.76899961 L32.6029459,14.3602171 L32.6932588,14.412563 L39.2301903,10.5825902 L39.2301903,10.5825902 Z"/>
      <path fill="#1C78C0" d="M8,28.9629718 L8,17 L19,23.4137537 L19,35 L8,28.9629718 Z M32,28.9629718 L32,17 L20.9562857,23.4975879 L20.9562857,35.1572129 L32,28.9629718 Z M20,9.88615132 L31,15.8535579 L20,22 L9,15.8535579 L20,9.88615132 Z"/>
    </g>
  </g>
</svg>
