<svg xmlns="http://www.w3.org/2000/svg" width="88" height="60" viewBox="0 0 88 60">
  <defs>
    <filter id="a" width="122.1%" height="175.1%" x="-11.1%" y="-37.6%" filterUnits="objectBoundingBox">
      <feGaussianBlur in="SourceGraphic" stdDeviation="2.857"/>
    </filter>
  </defs>
  <g fill="none" transform="translate(5 6)">
    <path fill="#000000" fill-opacity=".1" d="M39.13,45.384 C60.527,45.384 77.873,40.274 77.873,33.972 C77.873,27.669 60.527,22.559 39.13,22.559 C17.733,22.559 0.387,27.669 0.387,33.972 C0.387,40.275 17.733,45.384 39.13,45.384 Z" filter="url(#a)"/>
    <polyline fill="#D3492B" points="24.934 36.436 21.767 .846 56.567 .846 53.397 36.43 39.147 40.39 24.934 36.436"/>
    <polyline fill="#E15E30" points="39.167 37.363 50.682 34.163 53.392 3.757 39.167 3.757 39.167 37.363"/>
    <path fill="#ECECE9" d="M33.402,16.956 L33.004,12.486 L39.167,12.486 L39.167,8.122 L28.243,8.122 L29.418,21.322 L39.168,21.322 L39.168,16.956 L33.4,16.956 L33.402,16.956 Z M39.167,28.292 L39.147,28.297 L34.297,26.985 L33.987,23.505 L29.613,23.505 L30.223,30.357 L39.147,32.839 L39.167,32.832 L39.167,28.292 L39.167,28.292 Z"/>
    <path fill="#FFFFFF" d="M39.152,16.956 L39.152,21.321 L44.517,21.321 L44.011,26.983 L39.153,28.297 L39.153,32.837 L48.083,30.357 L49.173,18.129 L49.28,16.957 L39.15,16.957 M39.152,8.122 L39.152,12.487 L49.675,12.487 L49.763,11.505 L49.961,9.293 L50.066,8.123 L39.152,8.123"/>
  </g>
</svg>
