<svg xmlns="http://www.w3.org/2000/svg" width="88" height="60" viewBox="0 0 88 60">
  <defs>
    <filter id="a" width="122.1%" height="175.1%" x="-11.1%" y="-37.6%" filterUnits="objectBoundingBox">
      <feGaussianBlur in="SourceGraphic" stdDeviation="2.857"/>
    </filter>
  </defs>
  <g fill="none" transform="translate(5 7)">
    <path fill="#000000" fill-opacity=".1" d="M38.743,44.825 C60.14,44.825 77.486,39.715 77.486,33.413 C77.486,27.11 60.14,22 38.743,22 C17.346,22 0,27.11 0,33.413 C0,39.716 17.346,44.825 38.743,44.825 Z" filter="url(#a)"/>
    <polyline fill="#D5BA31" points="24.224 35.584 21.057 .062 55.857 .062 52.687 35.578 38.437 39.528 24.224 35.584"/>
    <polygon fill="#FFDA3E" points="49.972 33.317 52.682 2.967 38.457 2.967 38.457 36.509 49.972 33.316"/>
    <polyline fill="#ECECE9" points="38.457 27.455 38.437 27.46 33.587 26.15 33.277 22.676 28.9 22.676 29.51 29.516 38.435 31.994 38.455 31.988 38.455 27.455"/>
    <polygon fill="#FFFFFF" points="44.67 10.29 43.3 26.15 38.442 27.46 38.442 31.993 47.372 29.519 49.372 7.359 44.669 10.294"/>
    <polygon fill="#FFFFFF" points="38.417 11.644 48.969 11.66 49.055 10.68 49.255 8.473 49.358 7.303 38.416 7.303 38.416 11.643"/>
    <polygon fill="#EBEBE9" points="27.992 11.627 27.592 7.304 38.457 7.304 38.457 11.644 27.992 11.627"/>
  </g>
</svg>
