<svg xmlns="http://www.w3.org/2000/svg" width="88" height="60" viewBox="0 0 88 60">
  <defs>
    <filter id="a" width="122.1%" height="175.1%" x="-11.1%" y="-37.6%" filterUnits="objectBoundingBox">
      <feGaussianBlur in="SourceGraphic" stdDeviation="2.857"/>
    </filter>
  </defs>
  <g fill="none" fill-rule="evenodd" transform="translate(5 8)">
    <path fill="#000000" fill-opacity=".1" fill-rule="nonzero" d="M38.743,43.825 C60.14,43.825 77.486,38.715 77.486,32.413 C77.486,26.11 60.14,21 38.743,21 C17.346,21 0,26.11 0,32.413 C0,38.716 17.346,43.825 38.743,43.825 Z" filter="url(#a)"/>
    <g transform="translate(17)">
      <polygon fill="#FFAE00" points="22 0 43.011 24.153 33.902 36.532 22 37.8 10.097 36.532 .989 24.153" transform="rotate(-180 22 18.9)"/>
      <polygon fill="#EC6C00" points="22 13.65 43 37.8 1 37.8" transform="rotate(-180 22 25.725)"/>
      <polygon fill="#FFAE00" points="22 13.65 34.6 37.8 9.4 37.8" transform="rotate(-180 22 25.725)"/>
      <polygon fill="#FFEFB4" points="22 13.65 34.6 0 9.4 0" transform="rotate(-180 22 6.825)"/>
      <polygon fill="#FED305" points="21.4 12.37 22 0 9.4 13.65" transform="rotate(-180 15.7 6.825)"/>
      <polygon fill="#FED305" points="34 12.37 34.6 0 22 13.65" transform="matrix(1 0 0 -1 0 13.65)"/>
    </g>
  </g>
</svg>
